<svg width="215" height="39" viewBox="0 0 215 39" fill="none" xmlns="http://www.w3.org/2000/svg">
<path d="M76.6702 13.0012C76.7523 15.4365 76.0513 17.8339 74.6702 19.8412C72.9902 22.1812 70.1935 23.3512 66.2802 23.3512H61.2802V33.4312H53.4302V2.90125H66.0702C69.6635 2.90125 72.3902 3.95125 74.2502 6.05125C75.911 7.97607 76.7763 10.4612 76.6702 13.0012ZM68.4402 13.0012C68.4848 11.9972 68.1245 11.0173 67.4402 10.2812C66.4833 9.51216 65.2611 9.15269 64.0402 9.28124H61.3702V16.8812H63.9902C65.7102 16.8812 66.8902 16.5112 67.5302 15.7612C68.1688 14.9879 68.4936 14.0028 68.4402 13.0012ZM107.18 33.4312H98.7002L96.7002 28.1012H85.7002L83.6002 33.4312H75.2802L86.9902 2.90125H95.6402L107.18 33.4312ZM94.5902 22.0712L91.3002 12.3412L87.9902 22.0712H94.5902Z" fill="#6E6A79"/>
<path d="M133.51 2.90125L122.08 18.7612V33.4312H114.14V18.7612L103.09 2.90125H112.57L118.34 11.2212L123.89 2.90125H133.51Z" fill="#6E6A79"/>
<path d="M147.21 24.0012C147.223 25.0061 147.146 26.0102 146.98 27.0012C146.616 28.7834 145.665 30.3924 144.28 31.5712C142.372 33.3175 139.866 34.2628 137.28 34.2112C134.002 34.2333 130.958 32.5172 129.28 29.7012L134.48 24.4112C134.72 26.4112 135.58 27.4112 137.07 27.4112C138.56 27.4112 139.33 26.2412 139.3 23.8812V22.2012V2.90122H147.24L147.21 24.0012ZM185.46 18.2712C185.502 22.2994 184.024 26.1954 181.32 29.1812C178.173 32.7412 173.916 34.5246 168.55 34.5312C163.183 34.5379 158.933 32.7546 155.8 29.1812C153.096 26.1954 151.617 22.2994 151.66 18.2712C151.676 16.276 152.056 14.3005 152.78 12.4412C153.453 10.566 154.47 8.83291 155.78 7.33122C158.92 3.77789 163.176 2.00122 168.55 2.00122C173.923 2.00122 178.18 3.78455 181.32 7.35122C184.026 10.3396 185.505 14.2396 185.46 18.2712ZM177.23 18.2712C177.267 16.2139 176.528 14.2179 175.16 12.6812C173.52 10.7376 171.092 9.63569 168.55 9.68122C166.764 9.65522 165.015 10.1904 163.55 11.2112C161.242 12.8234 159.862 15.4564 159.85 18.2712C159.862 20.3145 160.623 22.2823 161.99 23.8012C163.65 25.7169 166.06 26.8174 168.595 26.8174C171.13 26.8174 173.54 25.7169 175.2 23.8012C176.532 22.2695 177.255 20.3012 177.23 18.2712Z" fill="#8CC541"/>
<path d="M214.28 2.90125L202.86 18.7612V33.4312H194.92V18.7612L183.87 2.90125H193.35L199.12 11.2212L204.67 2.90125H214.28Z" fill="#8CC541"/>
<path fill-rule="evenodd" clip-rule="evenodd" d="M39.21 0.00119221C35.77 0.00119221 13.75 -0.168808 8.57 3.55119C4.14901 6.72392 1.25573 11.6004 0.59 17.0012C0.332392 18.0698 0.155229 19.1561 0.06 20.2512C0.06 20.6112 0.06 20.9712 0 21.3312V31.6012C9.16523 16.9766 22.9719 5.84959 39.21 0.00119221Z" fill="#6E6A79"/>
<path fill-rule="evenodd" clip-rule="evenodd" d="M1.77002 38.6412H12.42C12.42 38.6412 25.42 39.1312 31.07 35.0912C35.5094 31.9189 38.4122 27.0277 39.07 21.6112C39.3268 20.5424 39.5039 19.4561 39.6 18.3612C39.6 18.0012 39.6 17.6412 39.66 17.2712V16.6212V0.211182C15.99 13.0912 5.99002 29.0012 1.77002 38.6412Z" fill="#8CC541"/>
</svg>
