<svg width="171" height="31" viewBox="0 0 171 31" fill="none" xmlns="http://www.w3.org/2000/svg">
<g clip-path="url(#clip0)">
<path d="M1.8456 10.5745L0 30.4452H9.9922L11.1161 18.3792H20.4721L19.3459 30.4452H29.3363L32.1753 0.00100708H22.1825L21.1998 10.5751H12.1753V10.5745H1.8456Z" fill="#008F78"/>
<path d="M11.9627 9.30563L12.8299 0H2.83709L1.96875 9.30563H11.9627Z" fill="#F08B00"/>
<path d="M34.3064 7.22639L32.2441 30.4448H41.2381L43.2986 7.22639H34.3064Z" fill="#008F78"/>
<path d="M43.5237 5.92705L44.076 0H35.0826L34.5303 5.92705H43.5237Z" fill="#008F78"/>
<path d="M56.3581 12.4505C57.087 12.4505 57.7884 12.6624 58.2965 13.0905C58.85 13.4708 59.2067 14.0266 59.1858 14.755H67.3623C67.6621 9.08224 61.6561 7.75926 56.5664 7.75926C51.8453 7.75926 45.3055 9.20999 44.783 14.798C44.4299 18.5931 47.0098 20.639 53.7657 21.7459C57.8799 22.427 58.6166 22.8133 58.4987 24.0909C58.3785 25.3715 56.4772 25.8002 55.2965 25.8002C54.2049 25.8002 53.3677 25.5434 52.9506 25.1596C52.3186 24.6062 52.0152 23.9643 52.0427 23.1996H43.4575C43.0607 28.9105 48.95 31 54.4922 31C60.2163 31 66.6388 29.341 67.2085 23.1996C67.5466 19.5722 65.0696 17.9107 62.1552 17.0152C59.2432 16.0755 55.8566 15.9072 54.4132 15.3042C53.9314 15.0977 53.4132 14.7986 53.4742 14.158C53.6077 12.7072 55.0858 12.4505 56.3581 12.4505Z" fill="#008F78"/>
<path d="M76.7888 16.8851C77.422 14.4946 79.088 13.1741 81.7655 13.1741C84.0856 13.1741 85.5668 14.8398 85.3729 16.8851H76.7888ZM81.4549 7.75987C74.0048 7.75987 68.5195 13.0039 67.9223 19.4432C67.2353 26.8222 72.5237 31 80.0587 31C85.4207 31 90.5793 28.7822 92.8426 24.0055H84.4375C83.611 25.0718 81.9749 25.5822 80.5201 25.5822C77.705 25.5822 76.328 23.7948 76.3352 21.2784H93.5931C94.3986 12.6643 90.8109 7.75987 81.4549 7.75987Z" fill="#008F78"/>
<path d="M112.795 7.75987C109.209 7.75987 106.691 8.90968 104.805 11.1288H104.714L104.973 8.3157H96.3001L94.2373 30.4448H103.232L104.321 18.7627C104.649 15.2206 106.759 14.4946 108.304 14.4946C110.937 14.4946 111.088 16.2869 110.854 18.8462L109.769 30.4448H118.764L120.175 15.2666C120.65 10.1897 117.013 7.75987 112.795 7.75987Z" fill="#008F78"/>
<path d="M133.658 12.4505C134.381 12.4505 135.09 12.6624 135.596 13.0905C136.15 13.4708 136.508 14.0266 136.484 14.755H144.662C144.961 9.08224 138.949 7.75926 133.865 7.75926C129.144 7.75926 122.602 9.20999 122.082 14.798C121.73 18.5931 124.309 20.639 131.064 21.7459C135.181 22.427 135.916 22.8133 135.797 24.0909C135.676 25.3715 133.776 25.8002 132.594 25.8002C131.504 25.8002 130.666 25.5434 130.245 25.1596C129.618 24.6062 129.314 23.9643 129.339 23.1996H120.754C120.36 28.9105 126.253 31 131.791 31C137.515 31 143.936 29.341 144.509 23.1996C144.845 19.5722 142.367 17.9107 139.454 17.0152C136.542 16.0755 133.153 15.9072 131.712 15.3042C131.23 15.0977 130.71 14.7986 130.771 14.158C130.905 12.7072 132.384 12.4505 133.658 12.4505Z" fill="#008F78"/>
<path d="M154.089 16.8851C154.717 14.4946 156.389 13.1741 159.065 13.1741C161.383 13.1741 162.864 14.8398 162.671 16.8851H154.089ZM158.753 7.75987C151.305 7.75987 145.821 13.0039 145.223 19.4432C144.535 26.8222 149.822 31 157.361 31C162.722 31 167.877 28.7822 170.138 24.0055H161.739C160.909 25.0718 159.277 25.5822 157.822 25.5822C155.004 25.5822 153.626 23.7948 153.637 21.2784H170.891C171.694 12.6643 168.112 7.75987 158.753 7.75987Z" fill="#008F78"/>
</g>
<defs>
<clipPath id="clip0">
<rect width="171" height="31" fill="white"/>
</clipPath>
</defs>
</svg>
