<svg width="215" height="54" viewBox="0 0 215 54" fill="none" xmlns="http://www.w3.org/2000/svg">
<g clip-path="url(#clip0)">
<path d="M21.4494 0.152546C18.4087 0.549156 15.1428 1.61695 12.5423 3.08136C5.95919 6.77289 1.55681 13.0271 0.246337 20.5424C0.000622535 21.9661 -0.060806 25.9424 0.133718 27.4576C0.492051 30.1831 1.22919 32.6339 2.39634 35.0441C3.63515 37.5966 4.91491 39.417 6.86015 41.4203C10.0954 44.7559 14.2009 47.1254 18.6544 48.2034C20.9682 48.7627 21.8385 48.8644 24.6232 48.8644C27.408 48.8644 28.2885 48.7627 30.5921 48.2034C34.073 47.3593 37.7075 45.5288 40.4309 43.2814C41.5673 42.3356 43.4511 40.3729 44.3316 39.2034C46.7068 36.0712 48.2937 32.4102 48.9285 28.6576C50.5768 18.9763 46.4816 9.49831 38.3013 4.05763C35.1071 1.93221 31.5544 0.630512 27.6435 0.14238C26.2101 -0.0305023 22.8725 -0.0305023 21.4494 0.152546ZM20.9478 18.3254C22.9135 24.8034 24.5721 30.1017 24.6232 30.1017C24.6847 30.1017 26.333 24.8034 28.2987 18.3254C30.2644 11.8576 31.9025 6.49831 31.9332 6.42712C31.9947 6.32543 34.1447 13.2407 41.2192 36.2847L41.3523 36.7119H40.5332C39.9701 36.7119 39.704 36.6712 39.6732 36.5797C39.6528 36.5186 39.448 35.7458 39.2125 34.8814C38.1171 30.8441 36.6325 27.7627 35.1275 26.4305C34.8101 26.1458 34.2061 25.7492 33.7966 25.5458C33.039 25.1797 33.0082 25.1695 31.8001 25.1695C30.5818 25.1695 30.5511 25.1797 29.8959 25.5254C29.0871 25.9525 27.8687 27.1322 27.2135 28.1186C26.6299 29.0034 25.6778 30.7627 25.0737 32.0542C24.6744 32.9186 24.613 33.0102 24.5311 32.817C24.1011 31.8102 22.7497 29.1966 22.3299 28.5763C21.2959 27.0305 20.2209 25.9729 19.1459 25.4441C18.634 25.2 18.4804 25.1695 17.4566 25.1797C16.1461 25.1797 15.624 25.3424 14.5694 26.0949C12.6651 27.4475 11.109 30.6915 9.62443 36.3763L9.51181 36.8136H8.69277C8.06824 36.8136 7.87372 36.7831 7.90443 36.6814C7.93515 36.6203 10.0442 29.7458 12.5935 21.4271C15.153 13.1085 17.2723 6.35594 17.303 6.42712C17.344 6.49831 18.9821 11.8576 20.9478 18.3254Z" fill="black"/>
<path d="M114.872 17.6239C114.872 23.5629 114.913 27.3256 114.985 27.8646C115.2 29.6442 115.988 31.2815 117.258 32.6036C118.855 34.2815 120.708 35.0951 123.298 35.2476L124.394 35.3188V33.2239V31.1188H123.697C122.407 31.1188 121.343 30.7222 120.483 29.9188C119.879 29.3595 119.52 28.79 119.264 27.9561C119.09 27.3866 119.07 26.9595 119.07 22.5663V17.7968H121.68H124.291V15.712V13.6273H121.68H119.07V10.9324V8.23747H116.971H114.872V17.6239Z" fill="black"/>
<path d="M186.538 21.6102V34.983H188.637H190.736V21.6102V8.23728H188.637H186.538V21.6102Z" fill="black"/>
<path d="M65.1666 13.739C62.4432 14.1356 59.9554 15.9864 58.7882 18.5085C57.9794 20.2373 58.0101 19.8407 57.9692 27.8339L57.9385 34.983H60.0475H62.1463V28.1186C62.1463 21.478 62.1566 21.2237 62.3511 20.6339C63.3954 17.5525 67.1016 16.6068 69.4461 18.8034C69.7532 19.0881 70.1218 19.5559 70.2856 19.8407C70.8487 20.878 70.8487 20.8475 70.8487 28.1898V34.983H72.9475H75.0463V28.0881C75.0463 20.3695 75.0259 20.6542 75.7835 19.5254C76.9609 17.7763 79.2542 17.1152 81.138 17.9898C81.9263 18.3559 82.7966 19.1288 83.1651 19.8102C83.7487 20.8678 83.7487 20.9085 83.7487 28.2407V34.983H85.7963H87.8542L87.8235 27.6814L87.7928 20.3898L87.547 19.678C86.4516 16.4441 83.8409 14.1966 80.6261 13.7288C78.0154 13.3627 75.3535 14.1966 73.4492 15.9864L72.8963 16.5051L72.2309 15.8847C70.3778 14.1559 67.767 13.3627 65.1666 13.739Z" fill="black"/>
<path d="M99.8729 13.7389C94.3034 14.5322 90.2389 19.4338 90.5358 24.9559C90.6894 27.7118 91.7951 30.1932 93.7198 32.0949C94.7027 33.0711 95.5217 33.6305 96.7913 34.2203C102.432 36.8338 109.149 34.2305 111.493 28.505C112.374 26.3389 112.517 23.8067 111.892 21.5491C111.637 20.6237 110.951 19.1593 110.367 18.2949C109.794 17.461 108.452 16.1288 107.613 15.5694C105.309 14.0237 102.504 13.3627 99.8729 13.7389ZM103.436 18.0915C104.582 18.4983 105.279 18.9355 106.169 19.8305C107.541 21.183 108.115 22.5559 108.115 24.4576C108.115 25.5864 107.93 26.3288 107.377 27.4576C106.538 29.1762 104.777 30.5288 102.821 30.9559C99.9139 31.5966 96.822 30.122 95.4705 27.4576C94.9074 26.3491 94.7641 25.7186 94.7641 24.4067C94.7641 23.3898 94.8051 23.1254 95.0508 22.4237C95.8391 20.1457 97.6001 18.5288 99.9139 17.9491C100.743 17.7355 102.658 17.8169 103.436 18.0915Z" fill="black"/>
<path d="M135.143 13.7389C134.119 13.8711 132.778 14.2881 131.775 14.7864C127.731 16.8101 125.447 20.9084 125.847 25.4542C126.226 29.8677 129.307 33.5796 133.648 34.8203C138.173 36.122 143.118 34.3321 145.719 30.4372C147.869 27.2236 148.125 23.0338 146.374 19.5762C145.371 17.583 143.497 15.7423 141.419 14.705C139.668 13.8406 137.262 13.4643 135.143 13.7389ZM138.808 18.1525C139.218 18.2948 139.73 18.5186 139.934 18.6406C142.064 19.8508 143.354 22.0372 143.354 24.4575C143.354 26.3084 142.75 27.7423 141.388 29.0948C140.671 29.8067 140.344 30.0508 139.627 30.3965C137.221 31.5559 134.692 31.2914 132.512 29.6542C131.345 28.7694 130.403 27.2542 130.085 25.7084C129.891 24.7525 129.881 24.2948 130.075 23.2474C130.526 20.7253 132.553 18.5999 135.133 17.9491C136.064 17.705 137.876 17.8067 138.808 18.1525Z" fill="black"/>
<path d="M157.125 13.7898C153.756 14.3898 151.043 17.0237 150.357 20.3593C150.214 21.0305 150.193 22.1491 150.193 28.0678V34.983H152.241H154.289V28.5458C154.289 24.5797 154.33 21.8644 154.401 21.4678C154.657 19.8508 155.783 18.5288 157.34 18.0102C157.851 17.8373 158.22 17.7966 159.305 17.7966H160.636V15.7119V13.6271L159.285 13.6373C158.537 13.6373 157.565 13.7085 157.125 13.7898Z" fill="black"/>
<path d="M171.489 13.7287C168.684 14.1253 166.022 15.671 164.312 17.9287C160.729 22.6371 161.65 29.471 166.349 32.9998C170.629 36.2134 176.567 35.9287 180.437 32.3287C181.778 31.088 182.71 29.6337 183.304 27.8643C184.389 24.61 183.887 21.071 181.921 18.2541C181.225 17.2473 179.72 15.8439 178.666 15.2134C177.714 14.6439 176.342 14.1049 175.256 13.871C174.345 13.6778 172.39 13.6066 171.489 13.7287ZM174.601 17.9998C175.86 18.3151 176.741 18.8236 177.734 19.8202C178.614 20.7049 179.014 21.3354 179.423 22.5253C179.689 23.2778 179.751 25.0982 179.536 25.9321C178.901 28.4643 176.864 30.427 174.314 30.9761C171.438 31.5863 168.356 30.0914 167.035 27.427C166.441 26.2473 166.226 25.2609 166.298 24.1015C166.482 21.1422 168.581 18.6507 171.479 17.949C172.339 17.7456 173.68 17.7659 174.601 17.9998Z" fill="black"/>
<path d="M203.125 13.6778C203.043 13.6982 202.623 13.7693 202.204 13.8304C198.968 14.3592 195.989 16.5456 194.494 19.4744C192.099 24.2032 193.348 29.8168 197.515 33.0202C201.221 35.8575 206.555 35.9795 210.394 33.3151L211.06 32.8473L211.09 33.9151L211.121 34.9829H213.066H215.012L214.981 28.749C214.95 22.7287 214.94 22.4948 214.725 21.7422C213.824 18.5795 211.858 16.1795 209.012 14.7863C207.507 14.0541 206.227 13.7388 204.558 13.6778C203.852 13.6575 203.207 13.6575 203.125 13.6778ZM206.278 18.1321C208.93 19.0575 210.701 21.366 210.875 24.1015C210.967 25.6168 210.466 27.2134 209.473 28.5151C208.316 30.0405 206.156 31.1083 204.221 31.1185C201.753 31.1287 199.296 29.6236 198.231 27.4575C197.678 26.3388 197.494 25.5863 197.494 24.4575C197.494 22.5558 198.067 21.1829 199.439 19.8202C200.422 18.8439 201.292 18.3253 202.531 17.9999C203.606 17.7049 205.244 17.766 206.278 18.1321Z" fill="black"/>
<path d="M59.9441 47.6136C58.8896 49.922 58.0091 51.8746 57.9784 51.9356C57.9374 52.0373 58.0808 52.0678 58.4903 52.0678H59.0432L59.5448 50.9492L60.0465 49.8305H62.3091H64.5615L65.0631 50.9492L65.575 52.0678H66.1586H66.7524L66.4862 51.478C66.3429 51.1627 65.4624 49.2203 64.5205 47.1559L62.8108 43.4237H62.3398H61.8689L59.9441 47.6136ZM62.9951 46.1695C63.3022 46.8712 63.7015 47.7458 63.8755 48.122L64.1827 48.8136H62.3501H60.5174L61.3262 47.0441C62.1862 45.1322 62.3501 44.8068 62.4012 44.8678C62.4115 44.878 62.6777 45.4678 62.9951 46.1695Z" fill="black"/>
<path d="M118.251 43.566C116.08 44.1864 114.739 46.2813 115.087 48.5084C115.445 50.8474 117.667 52.4948 120.001 52.1694C120.779 52.0576 121.957 51.4982 122.428 51.0304L122.755 50.6847L122.407 50.3491L122.049 50.0033L121.66 50.3389C120.268 51.5593 118.251 51.4982 117.043 50.1965C115.384 48.4067 115.896 45.7728 118.097 44.7355C119.203 44.2067 120.554 44.3999 121.527 45.2237L121.967 45.5999L122.315 45.2135L122.674 44.8271L122.377 44.522C122.223 44.3593 121.752 44.0542 121.332 43.8508C120.657 43.5152 120.493 43.4847 119.643 43.4542C119.1 43.444 118.517 43.4847 118.251 43.566Z" fill="black"/>
<path d="M70.9502 47.7966V52.0678H73.868H76.7859V51.6102V51.1525H74.38H71.974V47.339V43.5254H71.4621H70.9502V47.7966Z" fill="black"/>
<path d="M144.665 45.6915C144.071 45.8542 143.508 46.2 143.242 46.5559L143.037 46.8305L143.027 46.2915V45.7627H142.515H142.003V49.8813V54H142.515H143.027V52.5661V51.1322L143.406 51.4576C144.03 52.0068 144.593 52.2 145.371 52.1491C146.59 52.0576 147.573 51.3559 148.105 50.2068C148.351 49.6678 148.371 49.5152 148.33 48.7322C148.299 48 148.238 47.7559 147.992 47.2983C147.306 46.0576 145.863 45.3661 144.665 45.6915ZM145.975 46.739C146.477 46.9424 146.897 47.3491 147.132 47.8474C147.388 48.3966 147.388 49.4339 147.132 49.9932C146.774 50.7864 145.719 51.3661 144.962 51.2034C143.139 50.8068 142.423 48.7424 143.61 47.3186C144.153 46.6678 145.197 46.4135 145.975 46.739Z" fill="black"/>
<path d="M79.5198 45.8033C78.3117 46.2304 77.5029 47.288 77.3391 48.6304C77.2265 49.5965 77.6872 50.7762 78.4448 51.4067C79.4687 52.2711 80.861 52.4541 82.0282 51.8846C82.3865 51.7118 82.796 51.4473 82.9291 51.305L83.1749 51.0406L82.8575 50.7355L82.5503 50.4202L82.0794 50.7762C81.4753 51.2338 80.6972 51.4168 80.0318 51.244C79.2434 51.0507 78.4244 50.1762 78.4244 49.5355C78.4244 49.3219 78.4551 49.3219 80.8918 49.3219H83.3694L83.3182 48.5796C83.2363 47.2982 82.6629 46.3829 81.6494 45.905C81.0556 45.6304 80.1444 45.5897 79.5198 45.8033ZM81.4037 46.8202C81.7722 47.0643 82.1203 47.644 82.2534 48.2236L82.3149 48.5084H80.3287H78.3425L78.4244 48.1423C78.6496 47.1762 79.6734 46.4033 80.5744 46.5151C80.8201 46.5558 81.1989 46.688 81.4037 46.8202Z" fill="black"/>
<path d="M86.5125 45.8237C86.3179 45.9051 86.0006 46.1186 85.8265 46.2915L85.4887 46.6169V46.1898V45.7627H84.9767H84.4648V48.9153V52.0678H84.9767H85.4887V50.0034C85.4887 47.6847 85.5296 47.5017 86.236 46.9424C86.5841 46.6678 86.7172 46.6271 87.2803 46.6271C87.9867 46.6271 88.2939 46.7797 88.7034 47.3288C88.8979 47.583 88.9184 47.7661 88.9491 49.8407L88.9798 52.0678H89.4917H89.9934V49.6983C89.9934 47.6237 89.9627 47.2881 89.7989 46.9322C89.5634 46.4339 89.1437 46.0271 88.642 45.8237C88.1506 45.6203 86.9834 45.6203 86.5125 45.8237Z" fill="black"/>
<path d="M93.1057 45.8748C92.3788 46.1493 91.7031 46.7697 91.355 47.4714C91.0991 47.9799 91.0684 48.1629 91.0684 48.9663C91.0786 49.7595 91.1195 49.9527 91.355 50.4104C92.1434 51.9256 93.8327 52.5866 95.4912 52.0273C96.1977 51.7934 96.9758 51.0917 97.3341 50.3595C97.5798 49.8612 97.6208 49.668 97.6105 48.9154C97.6105 47.868 97.3648 47.2782 96.6481 46.5663C95.7779 45.7019 94.3036 45.4171 93.1057 45.8748ZM95.3274 46.8104C96.7915 47.5832 97.0372 49.6375 95.7881 50.7155C94.15 52.1494 91.6826 50.5629 92.1434 48.3765C92.2765 47.7358 92.7679 47.0951 93.3617 46.7798C93.8941 46.4951 94.7541 46.5154 95.3274 46.8104Z" fill="black"/>
<path d="M106.682 45.7526C105.73 46.0577 104.993 46.7187 104.573 47.6238C104.327 48.1628 104.307 48.3153 104.348 49.0984C104.378 49.8306 104.44 50.0746 104.686 50.5221C105.699 52.3729 108.248 52.7899 109.866 51.3763C110.91 50.4712 111.228 48.6611 110.572 47.3899C110.306 46.8712 109.62 46.2204 109.057 45.956C108.545 45.7017 107.173 45.5899 106.682 45.7526ZM108.597 46.8305C109.416 47.2373 109.856 47.9899 109.856 48.9763C109.856 50.2679 108.893 51.2543 107.634 51.2543C106.989 51.2441 106.416 50.9797 105.945 50.4611C104.88 49.2814 105.331 47.2678 106.784 46.6882C107.266 46.495 108.044 46.556 108.597 46.8305Z" fill="black"/>
<path d="M125.253 45.8745C124.526 46.1491 123.851 46.7695 123.502 47.4712C123.257 47.9796 123.216 48.1627 123.216 48.9661C123.216 49.7186 123.267 49.9729 123.462 50.3593C124.209 51.8847 125.98 52.5864 127.639 52.0271C128.345 51.7932 129.123 51.0915 129.482 50.3593C129.727 49.861 129.768 49.6678 129.758 48.9152C129.758 47.8678 129.512 47.2779 128.796 46.5661C127.925 45.7017 126.451 45.4169 125.253 45.8745ZM127.475 46.8101C128.898 47.5627 129.174 49.5661 128.007 50.6644C126.963 51.661 125.171 51.3356 124.506 50.044C123.871 48.8237 124.332 47.3898 125.571 46.7491C126.042 46.4949 126.932 46.5356 127.475 46.8101Z" fill="black"/>
<path d="M132.717 45.9661C132.42 46.1288 132.143 46.3525 132.082 46.4441C132 46.5864 131.979 46.5356 131.969 46.1898V45.7627H131.457H130.945V48.9153V52.0678H131.457H131.969V49.9627C131.969 47.9085 131.979 47.8576 132.225 47.4305C132.686 46.6475 133.751 46.3525 134.426 46.8102C135.133 47.278 135.194 47.4915 135.225 49.9017L135.266 52.0678H135.767H136.269V49.9322C136.269 47.5424 136.3 47.4102 136.955 46.9119C137.436 46.5458 138.337 46.5051 138.798 46.8407C139.392 47.2678 139.443 47.5322 139.443 49.9017V52.0678H140.016H140.59L140.549 49.7492C140.518 47.4508 140.518 47.4407 140.231 46.8508C139.812 46.017 139.351 45.722 138.347 45.6712C137.426 45.6305 136.863 45.8136 136.341 46.3424L135.972 46.6983L135.624 46.3322C135.163 45.8542 134.672 45.661 133.894 45.661C133.372 45.661 133.147 45.722 132.717 45.9661Z" fill="black"/>
<path d="M151.125 45.7627C150.418 45.8746 149.681 46.1491 149.681 46.3119C149.681 46.4339 149.886 47.0847 149.917 47.0847C149.927 47.0847 150.183 46.9932 150.47 46.8814C151.575 46.4644 152.579 46.5152 153.152 47.0237C153.428 47.2678 153.674 47.7864 153.674 48.1424C153.674 48.3763 153.664 48.3864 153.244 48.2847C152.63 48.1424 151.145 48.1424 150.644 48.2847C149.599 48.5797 149.026 49.3424 149.087 50.3593C149.118 50.8271 149.2 51.0305 149.436 51.3254C149.917 51.9254 150.49 52.1695 151.442 52.1695C152.302 52.1695 152.773 52.0271 153.336 51.6L153.674 51.3458V51.7017V52.0678H154.196H154.718L154.678 49.6983C154.647 47.4814 154.637 47.3085 154.422 46.9119C153.91 45.9559 152.661 45.5288 151.125 45.7627ZM152.958 49.0576L153.623 49.1695L153.654 49.6678C153.715 50.6237 152.845 51.3864 151.678 51.3864C150.992 51.3864 150.511 51.122 150.255 50.6136C150.091 50.2678 150.081 50.1864 150.203 49.861C150.521 49.0373 151.401 48.783 152.958 49.0576Z" fill="black"/>
<path d="M158.178 45.8237C157.984 45.9051 157.667 46.1186 157.493 46.2915L157.155 46.6169V46.1898V45.7627H156.643H156.131V48.9153V52.0678H156.643H157.155V50.0339C157.155 47.7559 157.196 47.5322 157.8 47.0136C158.619 46.3017 159.776 46.4644 160.41 47.3898C160.625 47.7153 160.636 47.8169 160.636 49.8915V52.0678H161.148H161.659V49.6983C161.659 47.6237 161.629 47.2881 161.465 46.9322C161.229 46.4339 160.81 46.0271 160.308 45.8237C159.817 45.6203 158.649 45.6203 158.178 45.8237Z" fill="black"/>
<path d="M97.8156 45.9355C97.8566 46.0372 98.4709 47.4813 99.1875 49.1491L100.488 52.1796L100.948 52.1491L101.399 52.1186L102.761 49.0169C103.508 47.3084 104.122 45.8847 104.122 45.8338C104.122 45.7931 103.877 45.7626 103.59 45.7626H103.047L102.034 48.2033C101.481 49.5457 100.989 50.644 100.948 50.644C100.908 50.644 100.57 49.8813 100.191 48.9355C99.8018 47.9999 99.3616 46.9016 99.1875 46.4948L98.8804 45.7626H98.3173C97.8259 45.7626 97.7644 45.783 97.8156 45.9355Z" fill="black"/>
<path d="M162.315 45.9358C162.346 46.0375 162.991 47.4408 163.749 49.068L165.11 52.0171L164.926 52.3934C164.588 53.0544 164.005 53.2883 163.308 53.0442L162.868 52.9019L162.725 53.2476C162.643 53.4307 162.582 53.6341 162.582 53.6849C162.582 53.9798 164.312 54.1222 164.813 53.8578C165.11 53.6951 165.53 53.2781 165.776 52.8815C165.94 52.6069 168.724 45.9561 168.724 45.8341C168.724 45.7832 168.468 45.7629 168.151 45.7832L167.578 45.8137L166.974 47.39C166.636 48.2544 166.196 49.3934 165.991 49.912L165.622 50.8578L164.517 48.3358L163.411 45.8137L162.838 45.7832C162.315 45.7527 162.264 45.7731 162.315 45.9358Z" fill="black"/>
</g>
<defs>
<clipPath id="clip0">
<rect width="215" height="54" fill="white"/>
</clipPath>
</defs>
</svg>
