<svg width="56" height="57" viewBox="0 0 56 57" fill="none" xmlns="http://www.w3.org/2000/svg">
<g clip-path="url(#clip0)">
<path d="M17.1925 47.5544V52.8814C17.1925 54.3945 16.4424 55.2019 15.0794 55.2019C13.7087 55.2019 12.9541 54.3712 12.9541 52.8168V47.5602H11.0684V52.8814C11.0684 55.4996 12.5213 56.9999 15.0546 56.9999C17.6118 56.9999 19.0783 55.4708 19.0783 52.8046V47.5544H17.1925ZM24.1305 47.5544L20.0349 56.8549H21.9598L22.7503 55.0537L22.8069 54.9187H27.0617L27.8962 56.8549H29.8734L25.8158 47.6094L25.7794 47.5544L24.1305 47.5544ZM35.3429 47.5544L33.2324 53.9537L31.178 47.5592H29.1711L32.4106 56.8607H33.9722L36.0869 50.7504L38.2 56.8607H39.7748L43.0064 47.5592H41.0508L38.9922 53.9537L36.8812 47.5544H35.3429ZM53.7967 47.5544V56.8469H55.6576V47.5544H53.7967ZM0.421875 47.555V56.8602H2.30814V53.0809H6.56717V56.8602H8.45396V47.555H6.56717V51.3088H2.30814V47.555H0.421875ZM44.5272 47.5612V56.8538H51.5477V55.1595H46.3881V52.8554H49.819V51.1606H46.3881V49.2556H51.3679V47.5612H44.5272ZM24.9295 49.9093L26.2743 53.0248H26.2696L26.3611 53.2397H23.5082L23.5985 53.0248H23.597L24.9295 49.9093Z" fill="#232527"/>
<path d="M23.911 -0.000398757C23.1628 0.0658419 21.141 0.526477 21.141 0.526477H21.1402C16.5831 1.70548 15.506 5.84487 15.506 5.84487C15.2834 6.54093 15.1823 7.25428 15.1526 7.92635V8.84106C15.2131 10.2543 15.5271 11.3096 15.5271 11.3096C17.0493 18.0658 24.5339 29.1672 26.1424 31.4993C26.2566 31.6125 26.348 31.5716 26.348 31.5716C26.5216 31.5237 26.508 31.357 26.508 31.357L26.5113 31.3578C28.9889 6.57003 23.911 -0.000374749 23.911 -0.000374749L23.911 -0.000398757ZM32.0975 -0.000398757C32.0975 -0.000398757 26.9975 6.5735 29.477 31.3757H29.4803C29.4995 31.5331 29.6111 31.5659 29.6111 31.5659C29.777 31.6303 29.8621 31.4707 29.8621 31.4707L29.8629 31.4723C31.5128 29.0807 38.9547 18.0397 40.4702 11.3095C40.4702 11.3095 41.2919 8.052 40.4986 5.84474C40.4986 5.84474 39.3721 1.64125 34.8092 0.530426C34.8092 0.530426 33.4942 0.196299 32.0976 -0.000518799L32.0975 -0.000398757ZM8.57366 7.44093C8.57366 7.44093 4.23156 11.566 4.01575 15.9393H4.01747V16.6019C4.02078 16.6518 4.02329 16.7023 4.02644 16.7532C4.21348 20.2796 6.86386 22.3667 6.86386 22.3667C11.1342 26.5326 21.4743 31.7921 23.877 32.9855C23.9107 32.9981 24.0348 33.0387 24.1077 32.9465C24.1077 32.9465 24.1457 32.9177 24.163 32.866V32.7561C24.1612 32.7498 24.1579 32.7435 24.1548 32.7366H24.1556C17.5756 18.3486 8.57375 7.44079 8.57375 7.44079L8.57366 7.44093ZM47.4244 7.44093C47.4244 7.44093 38.4497 18.3145 31.8725 32.6733L31.8751 32.6725C31.8751 32.6725 31.7974 32.839 31.923 32.9465C31.923 32.9465 31.9605 32.9748 32.0123 32.9863H32.1033C32.1197 32.9816 32.1372 32.9753 32.1545 32.9635V32.9651C34.6225 31.739 44.8826 26.514 49.1327 22.3674C49.1327 22.3674 51.8243 20.2039 51.9653 16.7303C52.2761 11.9058 47.4244 7.44078 47.4244 7.44078L47.4244 7.44093ZM55.502 21.7252C55.502 21.7252 40.8706 29.5845 33.3055 34.6922L33.3063 34.6931L33.308 34.6946C33.308 34.6946 33.1707 34.7846 33.2187 34.9459C33.2187 34.9459 33.2905 35.076 33.3949 35.076V35.0769C36.1047 35.0816 46.3583 35.0931 46.6154 35.0451C46.6154 35.0451 47.9413 34.9921 49.5795 34.3621C49.5795 34.3621 53.2268 33.2014 55.1212 29.0567C55.1212 29.0567 55.9868 27.3236 55.9993 24.8888V24.7856C55.993 23.8467 55.8608 22.8072 55.5022 21.7252H55.502ZM0.491912 21.7618C-0.839328 25.8869 0.952855 29.2108 0.955749 29.2162C2.82343 33.1662 6.38853 34.363 6.38853 34.363C8.0345 35.0399 9.68085 35.0867 9.68085 35.0867C9.93791 35.1337 19.9184 35.0914 22.5926 35.0788C22.7058 35.0779 22.7681 34.9641 22.7681 34.9641C22.776 34.9515 22.7829 34.9389 22.786 34.9274V34.8242C22.7638 34.7551 22.7047 34.7064 22.7047 34.7064L22.7065 34.7055C15.1451 29.5995 0.492032 21.762 0.492032 21.762L0.491912 21.7618ZM22.2872 36.3469L5.07501 36.951C6.94159 40.2816 10.0852 42.8701 13.3598 42.0751C15.6197 41.5096 20.7393 37.9352 22.4294 36.7274L22.4237 36.7227C22.5551 36.6046 22.5082 36.5097 22.5082 36.5097C22.4649 36.355 22.2872 36.3552 22.2872 36.3552L22.2872 36.3469ZM33.6873 36.3595L33.6855 36.3658C33.6855 36.3658 33.5344 36.385 33.4922 36.4983C33.4922 36.4983 33.4555 36.6531 33.5572 36.73L33.5554 36.7316C35.2033 37.9144 40.1989 41.4102 42.6055 42.089C42.6055 42.089 42.9701 42.2131 43.5811 42.2353H43.9482C45.5606 42.1787 48.3696 41.3496 50.922 36.96L33.6873 36.3595Z" fill="#CF0A2C"/>
</g>
<defs>
<clipPath id="clip0">
<rect width="56" height="57" fill="white"/>
</clipPath>
</defs>
</svg>
