<svg width="180" height="29" viewBox="0 0 180 29" fill="none" xmlns="http://www.w3.org/2000/svg">
<g clip-path="url(#clip0)">
<path d="M7.2 7.975C7.2 7.25 7.2 7.25 7.2 6.525C7.2 5.8 7.92 5.075 9.36 5.075C10.8 5.075 11.52 5.8 11.52 7.25V8.7H18V6.525C18 0.725 12.96 0 9.36 0C5.04 0 0.72 1.45 0.72 5.8C0.72 7.25 0.72 7.975 0.72 9.425C2.16 14.5 10.8 15.95 12.24 19.575C12.24 20.3 12.24 21.025 12.24 21.75C12.24 22.475 11.52 23.2 10.08 23.2C8.64 23.2 7.2 22.475 7.2 21.025V18.85H0V21.025C0 26.825 4.32 28.275 9.36 28.275C13.68 28.275 18 26.825 18.72 22.475C18.72 20.3 18.72 18.85 18.72 18.125C17.28 13.05 7.92 11.6 7.2 7.975ZM90.72 7.975C90.72 7.25 90.72 7.25 90.72 6.525C90.72 5.8 91.44 5.075 92.88 5.075C94.32 5.075 95.04 5.8 95.04 7.25V8.7H101.52V7.25C101.52 1.45 96.48 0.725 92.88 0.725C88.56 0.725 84.96 2.175 84.24 6.525C84.24 7.975 84.24 8.7 84.24 10.15C85.68 15.225 94.32 16.675 95.76 20.3C95.76 21.025 95.76 21.75 95.76 22.475C95.76 23.2 95.04 23.925 93.6 23.925C92.16 23.925 90.72 23.2 90.72 21.75V19.575H84.24V21.75C84.24 27.55 88.56 29 93.6 29C97.92 29 102.24 27.55 102.24 23.2C102.24 21.025 102.24 19.575 102.24 18.85C100.8 13.05 91.44 11.6 90.72 7.975ZM149.04 22.475L143.28 1.45H133.92V26.825H140.4L139.68 5.075L146.16 26.825H155.52V1.45H149.04V22.475ZM28.08 1.45L23.04 27.55H30.24L33.84 3.625L37.44 27.55H44.64L39.6 1.45H28.08ZM66.24 1.45L62.64 21.75L59.76 1.45H48.96L48.24 27.55H54.72V3.625L59.04 27.55H65.52L69.84 3.625V27.55H76.32L75.6 1.45H66.24ZM126 1.45H119.52V20.3V21.025C119.52 21.75 118.8 23.2 117.36 23.2C115.92 23.2 115.2 21.75 115.2 21.025V20.3V1.45H108.72V20.3C108.72 21.025 108.72 21.75 108.72 21.75C109.44 26.825 113.04 28.275 117.36 28.275C122.4 28.275 126 26.825 126 21.75V20.3V1.45ZM170.64 13.05V16.675H173.52V20.3V21.025C173.52 21.75 172.8 23.2 170.64 23.2C168.48 23.2 168.48 21.75 167.76 21.025V20.3V8.7C167.76 7.975 167.76 7.975 167.76 7.25C167.76 6.525 168.48 5.075 170.64 5.075C172.8 5.075 172.8 6.525 173.52 7.25C173.52 7.975 173.52 7.975 173.52 7.975V9.425H180V8.7C180 8.7 180 7.975 180 7.25C179.28 2.175 175.68 0.725 170.64 0.725C166.32 0.725 162 2.175 161.28 7.25C161.28 7.975 161.28 8.7 161.28 8.7V19.575C161.28 20.3 161.28 20.3 161.28 21.025C162 26.1 165.6 27.55 170.64 27.55C174.96 27.55 179.28 26.1 180 21.025C180 20.3 180 19.575 180 19.575V12.325H170.64V13.05Z" fill="#102E8D"/>
</g>
<defs>
<clipPath id="clip0">
<rect width="180" height="29" fill="white"/>
</clipPath>
</defs>
</svg>
